<?xml version="1.0" encoding="UTF-8"?>
<svg id="Layer_2" data-name="Layer 2" xmlns="http://www.w3.org/2000/svg" viewBox="0 0 338.94 338.94">
  <g id="Layer_1-2" data-name="Layer 1">
    <path d="m289.3,49.63C257.3,17.63,214.74,0,169.47,0S81.65,17.63,49.63,49.63C17.63,81.65,0,124.2,0,169.47c0,25.48,5.52,49.98,16.4,72.82,2.26,4.74,4.73,9.35,7.39,13.82,19.68,33.05,50.03,58.37,85.66,71.88,2.2.84,4.42,1.63,6.66,2.37,7.6,2.52,15.42,4.52,23.4,5.94,3.08.55,6.22,1.02,9.33,1.39,6.8.83,13.74,1.25,20.63,1.25,31.38,0,61.72-8.6,88.04-24.64,9.57-5.83,18.61-12.63,26.97-20.37,16.99-15.7,30.37-34.34,39.78-55.38,9.74-21.79,14.67-45.03,14.67-69.08,0-45.27-17.63-87.83-49.64-119.83Zm-147.84,55.51c3.18-1.32,6.95-2.51,10.34-4.38,5.83-3.24,11.66-3.94,17.83-1.43,4.52,1.85,8.72,4.22,12.2,7.88-14.16,8.25-29.5,7.16-40.37-2.07Zm127.95,172.48c-6.49,6.01-13.45,11.37-20.79,16.05-12.6-25.22-30.4-46.72-55.51-62.98-.99-.63-1.82-2.23-1.89-3.43-.5-7.47-1-14.96-.99-22.44.01-3.89,1.08-7.79,1.76-12.33,2.03,4.42,3.72,8.09,5.58,12.14,1.08-8.14,2.06-15.56,3.04-22.98.32.04.63.07.95.09.72,2.54,1.43,5.07,2.13,7.61.27-.06.55-.11.83-.16.5-3.22.93-6.45,1.51-9.64,1.08-5.9,2.26-11.8,5.94-16.76,2.71-3.66,5.98-5.62,10.93-4.38,7.18,1.79,14.43,3.4,21.73,4.49,12.46,1.84,24.96,3.58,37.51,4.61,5.25.44,10.62-.91,14.57,4.98,1.4-9.33-.3-17.02-4.56-24.17-4.79-8.02-11.61-14.05-19.26-19.2-13.59-9.13-28.63-15.07-44.08-20.14-1.54-.5-3.25-1.46-4.18-2.72-13.56-18.62-32.11-29.12-54.66-31.4-45.37-4.59-83.96,10.8-116.78,41.81-.64.61-1.14,1.39-2.21,2.71,7.51-2.35,14.18-4.82,21.99-4.91-15.98,16.47-32.41,31.6-43.71,51.91,7.82-3.33,14.92-6.37,22.03-9.4.22.32.44.64.66.96-.48,1.05-.93,2.1-1.46,3.13-6.94,13.6-15.64,25.94-25.41,37.55-1.91-9.51-2.87-19.25-2.87-29.17C22.21,88.27,88.27,22.21,169.47,22.21s147.27,66.06,147.27,147.26c0,40.94-17.25,80.36-47.33,108.16Z"/>
  </g>
</svg>